<svg width="375" height="424" viewBox="0 0 375 424" fill="none" xmlns="http://www.w3.org/2000/svg">
<path d="M229.773 37.0025C182.827 4.29945 150.92 -4.69775 85 37.0025L85 394.579C85.7016 410.321 85 416 85 416H373V394.579V37.0025C314.092 76.3522 281.695 78.4792 229.773 37.0025Z" fill="white" fill-opacity="0.25"/>
<path d="M189.819 44.1656C135.927 11.3903 99.2978 2.37326 23.624 44.1656L23.624 402.532C24.4295 418.308 23.624 424 23.624 424L354.5 421.5L354.24 402.532V44.1656C286.616 83.6022 249.424 85.7338 189.819 44.1656Z" fill="white"/>
<path d="M190.195 28.0643C136.303 -4.71096 99.6738 -13.728 24 28.0643L24 386.43C24.8054 402.207 24 407.899 24 407.899H354.616V386.43V28.0643C286.992 67.5009 249.8 69.6325 190.195 28.0643Z" fill="white" fill-opacity="0.2"/>
</svg>
