<svg width="375" height="424" viewBox="0 0 375 424" fill="none" xmlns="http://www.w3.org/2000/svg">
<path d="M189.819 28.0644C135.927 -4.71093 99.2978 -13.728 23.624 28.0643L23.624 386.43C24.4295 402.207 33.2514 404.86 50.7052 407.899H335.058C346.827 402.121 350.446 397.066 354.24 386.43V28.0643C286.616 67.5009 249.425 69.6326 189.819 28.0644Z" fill="white" fill-opacity="0.25"/>
<path d="M235.579 36.6517C181.687 3.87641 145.058 -5.14066 69.384 36.6517L69.384 395.018C70.1894 410.794 79.0114 413.447 96.4652 416.486H380.818C392.587 410.708 396.206 405.654 400 395.018V36.6517C332.376 76.0883 295.185 78.2199 235.579 36.6517Z" fill="white" fill-opacity="0.25"/>
<path d="M189.819 44.1656C135.927 11.3903 99.2978 2.37326 23.624 44.1656L23.624 402.532C24.4295 418.308 33.2514 420.961 50.7052 424H335.058C346.827 418.222 350.446 413.167 354.24 402.532V44.1656C286.616 83.6022 249.425 85.7338 189.819 44.1656Z" fill="white"/>
<rect x="264" y="412" width="4" height="150" rx="2" transform="rotate(90 264 412)" fill="#ECECEC"/>
</svg>
