<svg width="25" height="25" viewBox="0 0 25 25" fill="none" xmlns="http://www.w3.org/2000/svg">
<path d="M24.2852 3.41767C23.9174 3.04926 23.3207 3.04863 22.9529 3.41611L11.6495 14.6896L7.57129 10.2603C7.2189 9.87778 6.6231 9.85297 6.23994 10.2053C5.85708 10.5577 5.83257 11.1538 6.18496 11.5367L10.9274 16.6871C11.1011 16.8759 11.3442 16.9855 11.6005 16.9908C11.6074 16.9911 11.614 16.9911 11.6206 16.9911C11.8697 16.9911 12.1093 16.8922 12.2858 16.7163L24.2833 4.75024C24.652 4.38281 24.6526 3.78608 24.2852 3.41767Z" fill="#5D80FF"/>
<path d="M24.0578 11.5578C23.5374 11.5578 23.1156 11.9795 23.1156 12.5C23.1156 18.3537 18.3537 23.1156 12.5 23.1156C6.64668 23.1156 1.88442 18.3537 1.88442 12.5C1.88442 6.64668 6.64668 1.88442 12.5 1.88442C13.0204 1.88442 13.4422 1.46265 13.4422 0.942236C13.4422 0.421777 13.0204 0 12.5 0C5.60742 0 0 5.60742 0 12.5C0 19.3923 5.60742 25 12.5 25C19.3923 25 25 19.3923 25 12.5C25 11.9796 24.5782 11.5578 24.0578 11.5578Z" fill="#5D80FF"/>
</svg>
