<svg width="20" height="25" viewBox="0 0 20 25" fill="none" xmlns="http://www.w3.org/2000/svg">
<path d="M17.3169 9.898V7.27695C17.3169 3.26445 14.0345 0 10 0C5.9655 0 2.68317 3.26445 2.68317 7.277V9.89805H0V25H20V9.898H17.3169ZM10 1.46484C13.2224 1.46484 15.844 4.07217 15.844 7.277V9.89805H14.3711V7.27705C14.3712 4.87988 12.4103 2.92969 10 2.92969C7.58978 2.92969 5.6289 4.87988 5.6289 7.277V9.898H4.15603V7.277C4.15603 4.07217 6.77764 1.46484 10 1.46484ZM12.8983 7.277V9.898H7.10177V7.277C7.10177 5.6876 8.40197 4.39453 10 4.39453C11.5982 4.39453 12.8983 5.6876 12.8983 7.277ZM1.47287 23.5352V11.3628H18.5271V23.5352H1.47287Z" fill="black"/>
</svg>
