<svg width="98" height="23" viewBox="0 0 98 23" fill="none" xmlns="http://www.w3.org/2000/svg">
<path d="M14.128 0.803999V18H12.964C12.78 18 12.624 17.968 12.496 17.904C12.376 17.84 12.256 17.732 12.136 17.58L2.188 4.62C2.204 4.82 2.216 5.016 2.224 5.208C2.232 5.4 2.236 5.58 2.236 5.748V18H0.196V0.803999H1.396C1.5 0.803999 1.588 0.811999 1.66 0.827999C1.732 0.835999 1.796 0.855999 1.852 0.887999C1.908 0.911999 1.964 0.951999 2.02 1.008C2.076 1.056 2.136 1.12 2.2 1.2L12.148 14.148C12.132 13.94 12.116 13.74 12.1 13.548C12.092 13.348 12.088 13.16 12.088 12.984V0.803999H14.128ZM22.7691 5.652C23.6571 5.652 24.4571 5.8 25.1691 6.096C25.8811 6.392 26.4891 6.812 26.9931 7.356C27.4971 7.9 27.8811 8.56 28.1451 9.336C28.4171 10.104 28.5531 10.964 28.5531 11.916C28.5531 12.876 28.4171 13.74 28.1451 14.508C27.8811 15.276 27.4971 15.932 26.9931 16.476C26.4891 17.02 25.8811 17.44 25.1691 17.736C24.4571 18.024 23.6571 18.168 22.7691 18.168C21.8731 18.168 21.0651 18.024 20.3451 17.736C19.6331 17.44 19.0251 17.02 18.5211 16.476C18.0171 15.932 17.6291 15.276 17.3571 14.508C17.0931 13.74 16.9611 12.876 16.9611 11.916C16.9611 10.964 17.0931 10.104 17.3571 9.336C17.6291 8.56 18.0171 7.9 18.5211 7.356C19.0251 6.812 19.6331 6.392 20.3451 6.096C21.0651 5.8 21.8731 5.652 22.7691 5.652ZM22.7691 16.5C23.9691 16.5 24.8651 16.1 25.4571 15.3C26.0491 14.492 26.3451 13.368 26.3451 11.928C26.3451 10.48 26.0491 9.352 25.4571 8.544C24.8651 7.736 23.9691 7.332 22.7691 7.332C22.1611 7.332 21.6291 7.436 21.1731 7.644C20.7251 7.852 20.3491 8.152 20.0451 8.544C19.7491 8.936 19.5251 9.42 19.3731 9.996C19.2291 10.564 19.1571 11.208 19.1571 11.928C19.1571 13.368 19.4531 14.492 20.0451 15.3C20.6451 16.1 21.5531 16.5 22.7691 16.5ZM39.6589 5.844V18H37.5229V5.844H39.6589ZM40.1149 2.028C40.1149 2.236 40.0709 2.432 39.9829 2.616C39.9029 2.792 39.7909 2.952 39.6469 3.096C39.5109 3.232 39.3469 3.34 39.1549 3.42C38.9709 3.5 38.7749 3.54 38.5669 3.54C38.3589 3.54 38.1629 3.5 37.9789 3.42C37.8029 3.34 37.6469 3.232 37.5109 3.096C37.3749 2.952 37.2669 2.792 37.1869 2.616C37.1069 2.432 37.0669 2.236 37.0669 2.028C37.0669 1.82 37.1069 1.624 37.1869 1.44C37.2669 1.248 37.3749 1.084 37.5109 0.947999C37.6469 0.803999 37.8029 0.691999 37.9789 0.611999C38.1629 0.531999 38.3589 0.491999 38.5669 0.491999C38.7749 0.491999 38.9709 0.531999 39.1549 0.611999C39.3469 0.691999 39.5109 0.803999 39.6469 0.947999C39.7909 1.084 39.9029 1.248 39.9829 1.44C40.0709 1.624 40.1149 1.82 40.1149 2.028ZM43.1686 18V5.844H44.4526C44.7566 5.844 44.9446 5.992 45.0166 6.288L45.1726 7.536C45.6206 6.984 46.1246 6.532 46.6846 6.18C47.2446 5.828 47.8926 5.652 48.6286 5.652C49.4446 5.652 50.1046 5.88 50.6086 6.336C51.1206 6.792 51.4886 7.408 51.7126 8.184C51.8886 7.744 52.1126 7.364 52.3846 7.044C52.6646 6.724 52.9766 6.46 53.3206 6.252C53.6646 6.044 54.0286 5.892 54.4126 5.796C54.8046 5.7 55.2006 5.652 55.6006 5.652C56.2406 5.652 56.8086 5.756 57.3046 5.964C57.8086 6.164 58.2326 6.46 58.5766 6.852C58.9286 7.244 59.1966 7.728 59.3806 8.304C59.5646 8.872 59.6566 9.524 59.6566 10.26V18H57.5086V10.26C57.5086 9.308 57.3006 8.588 56.8846 8.1C56.4686 7.604 55.8686 7.356 55.0846 7.356C54.7326 7.356 54.3966 7.42 54.0766 7.548C53.7646 7.668 53.4886 7.848 53.2486 8.088C53.0086 8.328 52.8166 8.632 52.6726 9C52.5366 9.36 52.4686 9.78 52.4686 10.26V18H50.3206V10.26C50.3206 9.284 50.1246 8.556 49.7326 8.076C49.3406 7.596 48.7686 7.356 48.0166 7.356C47.4886 7.356 47.0006 7.5 46.5526 7.788C46.1046 8.068 45.6926 8.452 45.3166 8.94V18H43.1686ZM69.4909 12.528C68.5069 12.56 67.6669 12.64 66.9709 12.768C66.2829 12.888 65.7189 13.048 65.2789 13.248C64.8469 13.448 64.5309 13.684 64.3309 13.956C64.1389 14.228 64.0429 14.532 64.0429 14.868C64.0429 15.188 64.0949 15.464 64.1989 15.696C64.3029 15.928 64.4429 16.12 64.6189 16.272C64.8029 16.416 65.0149 16.524 65.2549 16.596C65.5029 16.66 65.7669 16.692 66.0469 16.692C66.4229 16.692 66.7669 16.656 67.0789 16.584C67.3909 16.504 67.6829 16.392 67.9549 16.248C68.2349 16.104 68.4989 15.932 68.7469 15.732C69.0029 15.532 69.2509 15.304 69.4909 15.048V12.528ZM62.5909 7.56C63.2629 6.912 63.9869 6.428 64.7629 6.108C65.5389 5.788 66.3989 5.628 67.3429 5.628C68.0229 5.628 68.6269 5.74 69.1549 5.964C69.6829 6.188 70.1269 6.5 70.4869 6.9C70.8469 7.3 71.1189 7.784 71.3029 8.352C71.4869 8.92 71.5789 9.544 71.5789 10.224V18H70.6309C70.4229 18 70.2629 17.968 70.1509 17.904C70.0389 17.832 69.9509 17.696 69.8869 17.496L69.6469 16.344C69.3269 16.64 69.0149 16.904 68.7109 17.136C68.4069 17.36 68.0869 17.552 67.7509 17.712C67.4149 17.864 67.0549 17.98 66.6709 18.06C66.2949 18.148 65.8749 18.192 65.4109 18.192C64.9389 18.192 64.4949 18.128 64.0789 18C63.6629 17.864 63.2989 17.664 62.9869 17.4C62.6829 17.136 62.4389 16.804 62.2549 16.404C62.0789 15.996 61.9909 15.516 61.9909 14.964C61.9909 14.484 62.1229 14.024 62.3869 13.584C62.6509 13.136 63.0789 12.74 63.6709 12.396C64.2629 12.052 65.0349 11.772 65.9869 11.556C66.9389 11.332 68.1069 11.204 69.4909 11.172V10.224C69.4909 9.28 69.2869 8.568 68.8789 8.088C68.4709 7.6 67.8749 7.356 67.0909 7.356C66.5629 7.356 66.1189 7.424 65.7589 7.56C65.4069 7.688 65.0989 7.836 64.8349 8.004C64.5789 8.164 64.3549 8.312 64.1629 8.448C63.9789 8.576 63.7949 8.64 63.6109 8.64C63.4669 8.64 63.3429 8.604 63.2389 8.532C63.1349 8.452 63.0469 8.356 62.9749 8.244L62.5909 7.56ZM79.0686 12.06C79.5006 12.06 79.8806 12 80.2086 11.88C80.5366 11.76 80.8126 11.592 81.0366 11.376C81.2606 11.16 81.4286 10.904 81.5406 10.608C81.6526 10.304 81.7086 9.972 81.7086 9.612C81.7086 8.868 81.4806 8.276 81.0246 7.836C80.5766 7.396 79.9246 7.176 79.0686 7.176C78.2046 7.176 77.5446 7.396 77.0886 7.836C76.6406 8.276 76.4166 8.868 76.4166 9.612C76.4166 9.972 76.4726 10.304 76.5846 10.608C76.7046 10.904 76.8766 11.16 77.1006 11.376C77.3246 11.592 77.6006 11.76 77.9286 11.88C78.2566 12 78.6366 12.06 79.0686 12.06ZM82.9206 18.66C82.9206 18.364 82.8366 18.124 82.6686 17.94C82.5006 17.756 82.2726 17.612 81.9846 17.508C81.7046 17.404 81.3766 17.332 81.0006 17.292C80.6246 17.244 80.2246 17.208 79.8006 17.184C79.3846 17.16 78.9606 17.136 78.5286 17.112C78.0966 17.088 77.6806 17.048 77.2806 16.992C76.8326 17.2 76.4646 17.464 76.1766 17.784C75.8966 18.096 75.7566 18.464 75.7566 18.888C75.7566 19.16 75.8246 19.412 75.9606 19.644C76.1046 19.884 76.3206 20.088 76.6086 20.256C76.8966 20.432 77.2566 20.568 77.6886 20.664C78.1286 20.768 78.6446 20.82 79.2366 20.82C79.8126 20.82 80.3286 20.768 80.7846 20.664C81.2406 20.56 81.6246 20.412 81.9366 20.22C82.2566 20.028 82.5006 19.8 82.6686 19.536C82.8366 19.272 82.9206 18.98 82.9206 18.66ZM85.0926 6.324V7.116C85.0926 7.38 84.9246 7.548 84.5886 7.62L83.2086 7.8C83.4806 8.328 83.6166 8.912 83.6166 9.552C83.6166 10.144 83.5006 10.684 83.2686 11.172C83.0446 11.652 82.7326 12.064 82.3326 12.408C81.9326 12.752 81.4526 13.016 80.8926 13.2C80.3326 13.384 79.7246 13.476 79.0686 13.476C78.5006 13.476 77.9646 13.408 77.4606 13.272C77.2046 13.432 77.0086 13.604 76.8726 13.788C76.7366 13.964 76.6686 14.144 76.6686 14.328C76.6686 14.616 76.7846 14.836 77.0166 14.988C77.2566 15.132 77.5686 15.236 77.9526 15.3C78.3366 15.364 78.7726 15.404 79.2606 15.42C79.7566 15.436 80.2606 15.464 80.7726 15.504C81.2926 15.536 81.7966 15.596 82.2846 15.684C82.7806 15.772 83.2206 15.916 83.6046 16.116C83.9886 16.316 84.2966 16.592 84.5286 16.944C84.7686 17.296 84.8886 17.752 84.8886 18.312C84.8886 18.832 84.7566 19.336 84.4926 19.824C84.2366 20.312 83.8646 20.744 83.3766 21.12C82.8886 21.504 82.2886 21.808 81.5766 22.032C80.8726 22.264 80.0766 22.38 79.1886 22.38C78.3006 22.38 77.5246 22.292 76.8606 22.116C76.1966 21.94 75.6446 21.704 75.2046 21.408C74.7646 21.112 74.4326 20.768 74.2086 20.376C73.9926 19.992 73.8846 19.588 73.8846 19.164C73.8846 18.564 74.0726 18.056 74.4486 17.64C74.8246 17.224 75.3406 16.892 75.9966 16.644C75.6366 16.484 75.3486 16.272 75.1326 16.008C74.9246 15.736 74.8206 15.372 74.8206 14.916C74.8206 14.74 74.8526 14.56 74.9166 14.376C74.9806 14.184 75.0766 13.996 75.2046 13.812C75.3406 13.62 75.5046 13.44 75.6966 13.272C75.8886 13.104 76.1126 12.956 76.3686 12.828C75.7686 12.492 75.3006 12.048 74.9646 11.496C74.6286 10.936 74.4606 10.288 74.4606 9.552C74.4606 8.96 74.5726 8.424 74.7966 7.944C75.0286 7.456 75.3486 7.044 75.7566 6.708C76.1646 6.364 76.6486 6.1 77.2086 5.916C77.7766 5.732 78.3966 5.64 79.0686 5.64C79.5966 5.64 80.0886 5.7 80.5446 5.82C81.0006 5.932 81.4166 6.1 81.7926 6.324H85.0926ZM95.2499 10.596C95.2499 10.1 95.1779 9.648 95.0339 9.24C94.8979 8.824 94.6939 8.468 94.4219 8.172C94.1579 7.868 93.8339 7.636 93.4499 7.476C93.0659 7.308 92.6299 7.224 92.1419 7.224C91.1179 7.224 90.3059 7.524 89.7059 8.124C89.1139 8.716 88.7459 9.54 88.6019 10.596H95.2499ZM96.9779 16.296C96.7139 16.616 96.3979 16.896 96.0299 17.136C95.6619 17.368 95.2659 17.56 94.8419 17.712C94.4259 17.864 93.9939 17.976 93.5459 18.048C93.0979 18.128 92.6539 18.168 92.2139 18.168C91.3739 18.168 90.5979 18.028 89.8859 17.748C89.1819 17.46 88.5699 17.044 88.0499 16.5C87.5379 15.948 87.1379 15.268 86.8499 14.46C86.5619 13.652 86.4179 12.724 86.4179 11.676C86.4179 10.828 86.5459 10.036 86.8019 9.3C87.0659 8.564 87.4419 7.928 87.9299 7.392C88.4179 6.848 89.0139 6.424 89.7179 6.12C90.4219 5.808 91.2139 5.652 92.0939 5.652C92.8219 5.652 93.4939 5.776 94.1099 6.024C94.7339 6.264 95.2699 6.616 95.7179 7.08C96.1739 7.536 96.5299 8.104 96.7859 8.784C97.0419 9.456 97.1699 10.224 97.1699 11.088C97.1699 11.424 97.1339 11.648 97.0619 11.76C96.9899 11.872 96.8539 11.928 96.6539 11.928H88.5299C88.5539 12.696 88.6579 13.364 88.8419 13.932C89.0339 14.5 89.2979 14.976 89.6339 15.36C89.9699 15.736 90.3699 16.02 90.8339 16.212C91.2979 16.396 91.8179 16.488 92.3939 16.488C92.9299 16.488 93.3899 16.428 93.7739 16.308C94.1659 16.18 94.5019 16.044 94.7819 15.9C95.0619 15.756 95.2939 15.624 95.4779 15.504C95.6699 15.376 95.8339 15.312 95.9699 15.312C96.1459 15.312 96.2819 15.38 96.3779 15.516L96.9779 16.296Z" fill="#4E5155"/>
</svg>
