<?xml version="1.0" encoding="iso-8859-1"?>
<!-- Generator: Adobe Illustrator 19.0.0, SVG Export Plug-In . SVG Version: 6.00 Build 0)  -->
<svg version="1.1" id="Capa_1" xmlns="http://www.w3.org/2000/svg" xmlns:xlink="http://www.w3.org/1999/xlink" x="0px" y="0px"
	 viewBox="0 0 512 512" style="enable-background:new 0 0 512 512;" xml:space="preserve">
<g>
	<g>
		<path d="M477.431,159.324C453.902,132.676,420.722,118,384,118c-45.282,0-79.368,26.085-103.253,55.023
			c9.076,13.938,16.147,27.28,21.303,38.106C320.397,184.701,347.872,158,384,158c50.991,0,88,41.215,88,98
			c0,56.785-37.009,98-88,98c-72.895,0-108.691-103.334-109.034-104.349l-0.099-0.287C272.981,244,227.522,118,128,118
			c-36.722,0-69.902,14.676-93.431,41.324C12.277,184.572,0,218.906,0,256s12.277,71.428,34.569,96.676
			C58.098,379.324,91.278,394,128,394c45.654,0,79.566-25.43,103.244-53.951c-9.054-13.935-16.065-27.293-21.211-38.294
			C191.929,327.869,164.657,354,128,354c-50.991,0-88-41.215-88-98c0-56.785,37.009-98,88-98
			c70.353,0,107.908,101.265,109.106,104.561C239.763,270.393,283.354,394,384,394c36.722,0,69.902-14.676,93.431-41.324
			C499.723,327.428,512,293.094,512,256S499.723,184.572,477.431,159.324z"/>
	</g>
</g>
<g>
</g>
<g>
</g>
<g>
</g>
<g>
</g>
<g>
</g>
<g>
</g>
<g>
</g>
<g>
</g>
<g>
</g>
<g>
</g>
<g>
</g>
<g>
</g>
<g>
</g>
<g>
</g>
<g>
</g>
</svg>
