<svg width="45" height="45" viewBox="0 0 45 45" fill="none" xmlns="http://www.w3.org/2000/svg">
<g clip-path="url(#clip0)">
<path d="M25.3125 45H19.6875C18.375 45 16.875 43.875 16.875 41.625V37.6875C16.875 35.8125 15.9375 34.125 14.4375 32.8125C11.0625 30.1875 9.375 26.4375 9.375 22.3125C9.5625 15.1875 15.375 9.5625 22.3125 9.375C25.875 9.375 29.25 10.6875 31.6875 13.125C34.125 15.5625 35.625 18.9375 35.625 22.5C35.625 26.4375 33.9375 30.1875 30.75 32.625C29.0625 33.9375 28.125 36 28.125 37.875V42.1875C28.125 43.6875 26.8125 45 25.3125 45ZM22.5 11.25C16.5 11.25 11.4375 16.3125 11.25 22.3125C11.25 25.875 12.75 29.25 15.5625 31.3125C17.625 33 18.75 35.25 18.75 37.6875V41.625C18.75 42 18.75 43.125 19.6875 43.125H25.3125C25.875 43.125 26.25 42.75 26.25 42.1875V37.875C26.25 35.4375 27.5625 32.8125 29.625 31.125C32.25 29.0625 33.75 25.875 33.75 22.5C33.75 19.5 32.625 16.6875 30.375 14.4375C28.3125 12.375 25.5 11.25 22.5 11.25Z" fill="black"/>
<path d="M27.1875 39.375H17.8125C17.25 39.375 16.875 39 16.875 38.4375C16.875 37.875 17.25 37.5 17.8125 37.5H27.1875C27.75 37.5 28.125 37.875 28.125 38.4375C28.125 39 27.75 39.375 27.1875 39.375Z" fill="black"/>
<path d="M22.5 5.625C21.9375 5.625 21.5625 5.25 21.5625 4.6875V0.9375C21.5625 0.375 21.9375 0 22.5 0C23.0625 0 23.4375 0.375 23.4375 0.9375V4.6875C23.4375 5.25 23.0625 5.625 22.5 5.625Z" fill="black"/>
<path d="M35.0625 10.875C34.875 10.875 34.5 10.875 34.3125 10.6875C33.9375 10.3125 33.9375 9.75 34.3125 9.375L36.9375 6.75C37.3125 6.375 37.875 6.375 38.25 6.75C38.625 7.125 38.625 7.6875 38.25 8.0625L35.625 10.6875C35.625 10.6875 35.25 10.875 35.0625 10.875Z" fill="black"/>
<path d="M44.0625 23.4375H40.3125C39.75 23.4375 39.375 23.0625 39.375 22.5C39.375 21.9375 39.75 21.5625 40.3125 21.5625H44.0625C44.625 21.5625 45 21.9375 45 22.5C45 23.0625 44.625 23.4375 44.0625 23.4375Z" fill="black"/>
<path d="M37.6875 38.625C37.5 38.625 37.125 38.625 36.9375 38.4375L34.3125 35.8125C33.9375 35.4375 33.9375 34.875 34.3125 34.5C34.6875 34.125 35.25 34.125 35.625 34.5L38.25 37.125C38.625 37.5 38.625 38.0625 38.25 38.4375C38.25 38.625 38.0625 38.625 37.6875 38.625Z" fill="black"/>
<path d="M7.3125 38.625C7.125 38.625 6.75 38.625 6.5625 38.4375C6.1875 38.0625 6.1875 37.5 6.5625 37.125L9.1875 34.5C9.5625 34.125 10.125 34.125 10.5 34.5C10.875 34.875 10.875 35.4375 10.5 35.8125L7.875 38.4375C7.6875 38.625 7.5 38.625 7.3125 38.625Z" fill="black"/>
<path d="M4.6875 23.4375H0.9375C0.375 23.4375 0 23.0625 0 22.5C0 21.9375 0.375 21.5625 0.9375 21.5625H4.6875C5.25 21.5625 5.625 21.9375 5.625 22.5C5.625 23.0625 5.25 23.4375 4.6875 23.4375Z" fill="black"/>
<path d="M9.9375 10.875C9.75 10.875 9.375 10.875 9.1875 10.6875L6.5625 7.875C6.1875 7.5 6.1875 6.9375 6.5625 6.5625C6.9375 6.1875 7.5 6.1875 7.875 6.5625L10.5 9.1875C10.875 9.5625 10.875 10.125 10.5 10.5C10.3125 10.6875 10.125 10.875 9.9375 10.875Z" fill="black"/>
<path d="M30 23.4375C29.4375 23.4375 29.0625 23.0625 29.0625 22.5C29.0625 18.9375 26.0625 15.9375 22.5 15.9375C21.9375 15.9375 21.5625 15.5625 21.5625 15C21.5625 14.4375 21.9375 14.0625 22.5 14.0625C27.1875 14.0625 30.9375 17.8125 30.9375 22.5C30.9375 23.0625 30.5625 23.4375 30 23.4375Z" fill="black"/>
</g>
<defs>
<clipPath id="clip0">
<rect width="45" height="45" fill="white"/>
</clipPath>
</defs>
</svg>
